<svg xmlns="http://www.w3.org/2000/svg" viewBox="0 0 1920 1080">
  <rect width="1920" height="1080" fill="#fbf7ef" />
  <rect x="250" y="210" width="520" height="650" rx="24" fill="#ffffff" stroke="#d8dee8" stroke-width="4" />
  <rect x="820" y="210" width="850" height="650" rx="24" fill="#ffffff" stroke="#d8dee8" stroke-width="4" />
  <circle cx="340" cy="330" r="34" fill="#111827" />
  <rect x="400" y="305" width="270" height="28" rx="14" fill="#cad3df" />
  <rect x="400" y="350" width="220" height="22" rx="11" fill="#e5eaf0" />
  <circle cx="910" cy="340" r="34" fill="#7ee7bf" />
  <rect x="970" y="315" width="530" height="28" rx="14" fill="#cad3df" />
  <rect x="970" y="360" width="420" height="22" rx="11" fill="#e5eaf0" />
  <circle cx="910" cy="510" r="34" fill="#ffd166" />
  <rect x="970" y="485" width="420" height="28" rx="14" fill="#cad3df" />
  <rect x="970" y="530" width="560" height="22" rx="11" fill="#e5eaf0" />
  <circle cx="910" cy="680" r="34" fill="#9ad7ff" />
  <rect x="970" y="655" width="480" height="28" rx="14" fill="#cad3df" />
  <rect x="970" y="700" width="360" height="22" rx="11" fill="#e5eaf0" />
  <text x="120" y="155" fill="#111827" font-family="Inter, Arial, sans-serif" font-size="44" font-weight="800">Product collaboration placeholder</text>
</svg>
