<svg xmlns="http://www.w3.org/2000/svg" viewBox="0 0 100 100" width="100" height="100">
  <circle cx="50" cy="50" r="48" fill="#1f2022" />
  <g transform="translate(0, -5) scale(1.1) translate(-5, 0)">
    <ellipse cx="50" cy="62" rx="38" ry="26" fill="#2f3136" stroke="#1a1a1c" stroke-width="2.5" />
    <path d="M 22,47 Q 15,24 28,24 Q 34,24 40,40" fill="#2f3136" stroke="#1a1a1c" stroke-width="2.5" stroke-linecap="round" stroke-linejoin="round" />
    <path d="M 78,47 Q 85,24 72,24 Q 66,24 60,40" fill="#2f3136" stroke="#1a1a1c" stroke-width="2.5" stroke-linecap="round" stroke-linejoin="round" />
    <circle cx="32" cy="57" r="6.5" fill="#f8e71c" stroke="#1a1a1c" stroke-width="1.5" />
    <circle cx="68" cy="57" r="6.5" fill="#00f3ff" stroke="#1a1a1c" stroke-width="1.5" />
    <ellipse cx="50" cy="64" rx="4" ry="2.5" fill="#3a2a26" />
    <path d="M 40,69 Q 45,74.5 50,69" fill="none" stroke="#1a1a1c" stroke-width="2.5" stroke-linecap="round" />
    <path d="M 50,69 Q 55,74.5 60,69" fill="none" stroke="#1a1a1c" stroke-width="2.5" stroke-linecap="round" />
  </g>
  <circle cx="84" cy="16" r="11" fill="#f59e0b" stroke="#1f2022" stroke-width="3" />
  <path d="M78.5 16h11M84 10.5v11" stroke="#fff" stroke-width="2.3" stroke-linecap="round" />
</svg>
