<svg xmlns="http://www.w3.org/2000/svg" viewBox="0 0 100 100" width="200" height="200">
  <defs>
    <!-- Background Glass Gradients -->
    <linearGradient id="glassBg" x1="0%" y1="0%" x2="100%" y2="100%">
      <stop offset="0%" stop-color="rgba(255, 255, 255, 0.4)" />
      <stop offset="100%" stop-color="rgba(255, 255, 255, 0.1)" />
    </linearGradient>
    <linearGradient id="glassBorder" x1="0%" y1="0%" x2="100%" y2="100%">
      <stop offset="0%" stop-color="rgba(255, 255, 255, 0.8)" />
      <stop offset="100%" stop-color="rgba(255, 255, 255, 0.2)" />
    </linearGradient>

    <filter id="softGlow" x="-20%" y="-20%" width="140%" height="140%">
      <feGaussianBlur stdDeviation="8" />
    </filter>

    <!-- Cat 3D Volume Gradients -->
    <radialGradient id="catBody" cx="50%" cy="35%" r="70%">
      <stop offset="0%" stop-color="#5a5a5e" />
      <stop offset="50%" stop-color="#3d3d40" />
      <stop offset="100%" stop-color="#18181a" />
    </radialGradient>

    <!-- Eyes 3D Gradients -->
    <radialGradient id="eyeYellow" cx="35%" cy="35%" r="65%">
      <stop offset="0%" stop-color="#ffffcc" />
      <stop offset="35%" stop-color="#f8e71c" />
      <stop offset="100%" stop-color="#b3a100" />
    </radialGradient>

    <radialGradient id="eyeCyan" cx="35%" cy="35%" r="65%">
      <stop offset="0%" stop-color="#ccffff" />
      <stop offset="35%" stop-color="#00f3ff" />
      <stop offset="100%" stop-color="#0099aa" />
    </radialGradient>
  </defs>

  <g>
    <!-- Background Elements -->
    <g id="glass-background">
      <!-- Glow blobs (Moved slightly outwards to not center on the face) -->
      <circle cx="25" cy="25" r="24" fill="#00f3ff" opacity="0.45" filter="url(#softGlow)" />
      <circle cx="75" cy="75" r="22" fill="#ff7da5" opacity="0.4" filter="url(#softGlow)" />
      <circle cx="75" cy="25" r="18" fill="#f8e71c" opacity="0.35" filter="url(#softGlow)" />

      <!-- Main Glass Circle -->
      <circle cx="50" cy="50" r="46" fill="url(#glassBg)" stroke="url(#glassBorder)" stroke-width="1.5" />
      
      <!-- Glass Reflection Highlight (Kept purely to the top edge) -->
      <path d="M 12.5,35 A 41,41 0 0,1 87.5,35 A 46,46 0 0,0 12.5,35 Z" fill="rgba(255,255,255,0.15)" />
    </g>

    <!-- Sparkles (Moved behind cat, placed in empty spaces) -->
    <path d="M 23,20 Q 23,13 30,13 Q 23,13 23,6 Q 23,13 16,13 Q 23,13 23,20 Z" fill="#fff" opacity="0.9" />
    <path d="M 82,38 Q 82,33 87,33 Q 82,33 82,28 Q 82,33 77,33 Q 82,33 82,38 Z" fill="#fff" opacity="0.8" />
    <path d="M 16,72 Q 16,69 19,69 Q 16,69 16,66 Q 16,69 13,69 Q 16,69 16,72 Z" fill="#fff" opacity="0.6" />

    <!-- Cat Elements -->
    <g id="cat">
      <!-- Left Ear (Viewer's Left) -->
      <path d="M 22,47 Q 15,24 28,24 Q 34,24 40,40" fill="url(#catBody)" stroke="#1a1a1c" stroke-width="2.5" stroke-linecap="round" stroke-linejoin="round" />
      
      <!-- Right Ear (Viewer's Right) -->
      <path d="M 78,47 Q 85,24 72,24 Q 66,24 60,40" fill="url(#catBody)" stroke="#1a1a1c" stroke-width="2.5" stroke-linecap="round" stroke-linejoin="round" />
      
      <!-- Cat Main Body (Now a pure Ellipse) -->
      <ellipse cx="50" cy="62" rx="38" ry="26" fill="url(#catBody)" stroke="#1a1a1c" stroke-width="2.5" />
      
      <!-- Subtle top inner highlight to enhance 3D without looking like a separate line -->
      <ellipse cx="50" cy="61" rx="35" ry="23" fill="none" stroke="rgba(255,255,255,0.08)" stroke-width="1.5" />

      <!-- Left Eye (Yellow) -->
      <circle cx="32" cy="57" r="6.5" fill="url(#eyeYellow)" stroke="#1a1a1c" stroke-width="1.5" />
      <circle cx="30" cy="54.5" r="2.2" fill="#ffffff" />
      <circle cx="34" cy="60" r="1.2" fill="#ffffff" opacity="0.6" />
      
      <!-- Right Eye (Cyan) -->
      <circle cx="68" cy="57" r="6.5" fill="url(#eyeCyan)" stroke="#1a1a1c" stroke-width="1.5" />
      <circle cx="66" cy="54.5" r="2.2" fill="#ffffff" />
      <circle cx="70" cy="60" r="1.2" fill="#ffffff" opacity="0.6" />
      
      <!-- Nose (Small, cute, round ellipse) -->
      <ellipse cx="50" cy="64" rx="4" ry="2.5" fill="#3a2a26" />
      <ellipse cx="49.5" cy="63.2" rx="1.5" ry="0.8" fill="#8c7772" />
      
      <!-- Mouth (:3 shape refined for the new ellipse face) -->
      <path d="M 40,69 Q 45,74.5 50,69" fill="none" stroke="#1a1a1c" stroke-width="2.5" stroke-linecap="round" />
      <path d="M 50,69 Q 55,74.5 60,69" fill="none" stroke="#1a1a1c" stroke-width="2.5" stroke-linecap="round" />
    </g>
  </g>
</svg>
